<?xml version="1.0" encoding="utf-8"?>
<svg xmlns="http://www.w3.org/2000/svg" width="61.598" height="60.763" viewBox="0 0 61.598 60.763">
  <g id="dynamic-cms" transform="translate(-109.431 -14.882)">
    <g id="Group_2740" data-name="Group 2740">
      <path id="Path_2467" data-name="Path 2467" d="M119.863,73.315h0a3,3,0,0,1,3-3h35a3,3,0,0,1,3,3h0a2,2,0,0,1-2,2h-37a2,2,0,0,1-2-2Z" fill="#e0e0e2"/>
      <path id="Path_2468" data-name="Path 2468" d="M110.166,42.354s3.93-5.75,11.515-.854c6.857,4.426,1.77,12.713,1.77,12.713l8.753.252.492-1.792,4.072-1.651.6-3.9-4.45-2.041L131.6,42.327l2.793-4.341L132.2,35.008l-5.011,1.045-2.421-2.2.114-4.372-4.517-1.131-2.658,3.681h-3.376l-4.169-4.765Z" fill="#ff6b6b"/>
      <path id="Path_2469" data-name="Path 2469" d="M120.841,22.788a.3.3,0,0,1,0-.421l3.141-3.142.421.422-2.93,2.93,2.93,2.931-.421.421Z" fill="#42495b"/>
      <path id="Path_2470" data-name="Path 2470" d="M120.841,22.788a.3.3,0,0,1,0-.421l3.141-3.142.421.422-2.93,2.93,2.93,2.931-.421.421Z" fill="none"/>
      <path id="Path_2471" data-name="Path 2471" d="M129.88,25.508l2.93-2.931-2.93-2.93.421-.422,3.141,3.142a.3.3,0,0,1,0,.421L130.3,25.929Z" fill="#42495b"/>
      <path id="Path_2472" data-name="Path 2472" d="M129.88,25.508l2.93-2.931-2.93-2.93.421-.422,3.141,3.142a.3.3,0,0,1,0,.421L130.3,25.929Z" fill="none"/>
      <rect id="Rectangle_3263" data-name="Rectangle 3263" width="9.996" height="0.596" transform="translate(125.278 27.213) rotate(-71.584)" fill="#42495b"/>
      <rect id="Rectangle_3264" data-name="Rectangle 3264" width="9.996" height="0.596" transform="translate(125.278 27.213) rotate(-71.584)" fill="none"/>
      <path id="Path_2473" data-name="Path 2473" d="M121.6,75.645a2.678,2.678,0,1,1,0-5.356h8.172l2.892-6.787H115.353a5.936,5.936,0,0,1-5.922-5.923V20.805a5.936,5.936,0,0,1,5.923-5.923h49.752a5.937,5.937,0,0,1,5.923,5.923V57.579A5.938,5.938,0,0,1,165.1,63.5H147.8l2.892,6.787h8.172a2.678,2.678,0,1,1,0,5.356Zm0-4.328a1.649,1.649,0,1,0,0,3.3h37.263a1.649,1.649,0,1,0,0-3.3Zm9.322-1.028h18.619L146.646,63.5H133.812Zm-20.461-12.71a4.9,4.9,0,0,0,4.894,4.9h49.753a4.9,4.9,0,0,0,4.894-4.9v-2.73H110.459Zm21.329-23.191a.517.517,0,0,1,.417.213l2.357,3.244a.513.513,0,0,1,.02.575L132.3,42.082l.876,2.692,4,1.621a.51.51,0,0,1,.32.476v4.012a.51.51,0,0,1-.32.476L133.8,52.728l.213,1.092H170V20.805a4.9,4.9,0,0,0-4.894-4.893H115.353a4.9,4.9,0,0,0-4.894,4.893V40.938l.844-.471a9.616,9.616,0,0,1,13.363,12.542l-.388.811h7.542l.452-1.383a.507.507,0,0,1,.294-.319l3.9-1.582V47.22l-3.9-1.581a.518.518,0,0,1-.3-.318l-1.024-3.15a.517.517,0,0,1,.05-.434l2.224-3.566-1.95-2.684L127.49,36.5a.561.561,0,0,1-.124.015.519.519,0,0,1-.306-.1l-2.677-1.945a.516.516,0,0,1-.21-.38l-.295-4.192-3.154-1.025L118.019,32.1a.514.514,0,0,1-.395.184h-3.311a.514.514,0,0,1-.4-.184l-3.39-4.037.7-.27a.489.489,0,0,1,.155-.024.523.523,0,0,1,.4.185l2.774,3.3h2.836l2.772-3.3a.52.52,0,0,1,.4-.184.545.545,0,0,1,.16.025l3.809,1.238a.515.515,0,0,1,.355.453l.3,4.3,2.285,1.659,4.189-1.035A.534.534,0,0,1,131.788,34.388Zm-15.826,5.89a8.51,8.51,0,0,0-5.284,1.82l-.219.171V53.82h12.556l.168-.258a8.6,8.6,0,0,0-7.221-13.284Z" fill="#42495b"/>
      <rect id="Rectangle_3265" data-name="Rectangle 3265" width="27.865" height="0.866" transform="translate(137.431 24.882)" fill="#42495b"/>
      <rect id="Rectangle_3266" data-name="Rectangle 3266" width="16.865" height="0.866" transform="translate(137.431 28.882)" fill="#42495b"/>
      <rect id="Rectangle_3267" data-name="Rectangle 3267" width="16.865" height="0.865" transform="translate(137.431 33.883)" fill="#42495b"/>
      <rect id="Rectangle_3268" data-name="Rectangle 3268" width="18.865" height="0.866" transform="translate(146.431 20.882)" fill="#42495b"/>
      <rect id="Rectangle_3269" data-name="Rectangle 3269" width="0.865" height="0.866" transform="translate(141.431 20.882)" fill="#42495b"/>
      <path id="Path_2474" data-name="Path 2474" d="M142.96,49.44V48.412h2.163V44.086h1.028v4.326h3.3V41.923h1.028v6.489h3.3V43H154.8v5.408h3.3V37.6h1.028V48.412h3.3V39.76h1.029v8.652h2.163V49.44Z" fill="#42495b"/>
    </g>
    <path id="Path_2475" data-name="Path 2475" d="M130.92,70.289h18.619L146.646,63.5H133.813Z" fill="#ff6b6b"/>
    <path id="Path_2476" data-name="Path 2476" d="M110.459,57.579a4.9,4.9,0,0,0,4.894,4.9h49.753a4.9,4.9,0,0,0,4.894-4.9v-2.73H110.459Z" fill="#e0e0e2"/>
  </g>
</svg>
