<?xml version="1.0" encoding="utf-8"?>
<svg xmlns="http://www.w3.org/2000/svg" width="58.866" height="58.866" viewBox="0 0 58.866 58.866">
  <g id="ecommerce-store" transform="translate(-12.528 -98.396)">
    <path id="Path_2495" data-name="Path 2495" d="M28.961,99.262a1.569,1.569,0,0,0-1.566,1.567V106.4H70.528v-5.567a1.569,1.569,0,0,0-1.567-1.567Z" fill="#e0e0e2"/>
    <path id="Path_2496" data-name="Path 2496" d="M16.961,157.262a4.438,4.438,0,0,1-4.433-4.433v-4a.434.434,0,0,1,.433-.433h2.567V118.829a2.448,2.448,0,0,1,2.435-2.433h8.565V100.829A2.448,2.448,0,0,1,28.963,98.4h40a2.447,2.447,0,0,1,2.433,2.435v38a.433.433,0,0,1-.433.433H68.394V148.4h2.567a.433.433,0,0,1,.433.433v4a4.438,4.438,0,0,1-4.433,4.433ZM13.4,152.829A3.583,3.583,0,0,0,16.96,156.4h50a3.584,3.584,0,0,0,3.567-3.565v-3.569H47.394v1.567a2.447,2.447,0,0,1-2.435,2.433h-6a2.447,2.447,0,0,1-2.433-2.435v-1.565H13.4Zm24-2a1.569,1.569,0,0,0,1.567,1.567h6a1.569,1.569,0,0,0,1.567-1.567v-1.567H37.394ZM17.961,117.262a1.569,1.569,0,0,0-1.566,1.567V148.4H67.528v-9.134H64.394v5.567a.433.433,0,0,1-.433.433h-44a.434.434,0,0,1-.433-.433v-24a.434.434,0,0,1,.433-.433h6.567v-3.134ZM20.4,144.4H63.528v-5.134H26.961a.434.434,0,0,1-.433-.433V121.262H20.4Zm7-6H70.528V107.262H27.4Zm1.566-39.134a1.569,1.569,0,0,0-1.566,1.567V106.4H70.528v-5.567a1.569,1.569,0,0,0-1.567-1.567Zm24,36a.433.433,0,0,1-.433-.433v-8a.433.433,0,0,1,.433-.433h14a.433.433,0,0,1,.433.433v8a.433.433,0,0,1-.433.433Zm.433-.866H66.528v-7.134H53.394Zm-18.433-1.134a.433.433,0,1,1,0-.866h10a.433.433,0,1,1,0,.866Zm0-6a.433.433,0,0,1-.433-.433v-9.446l-3.465.867a.46.46,0,0,1-.1.012.454.454,0,0,1-.276-.094.428.428,0,0,1-.157-.335v-4a.432.432,0,0,1,.329-.419l3.973-1a.439.439,0,0,1,.111-.013h2.02a.433.433,0,0,1,.433.433,2.567,2.567,0,1,0,5.134,0,.433.433,0,0,1,.433-.433h2.02a.4.4,0,0,1,.1.014l3.977,1a.433.433,0,0,1,.331.42v4a.434.434,0,0,1-.165.345.421.421,0,0,1-.259.091.43.43,0,0,1-.107-.014l-3.469-.868v9.446a.433.433,0,0,1-.433.433Zm.009-10.867a.428.428,0,0,1,.26.089.433.433,0,0,1,.165.341V126.4h9.134v-9.567a.434.434,0,0,1,.165-.346.457.457,0,0,1,.267-.086.443.443,0,0,1,.108.013l3.46.866v-3.109l-3.606-.9H43.394l-.112.424a3.433,3.433,0,0,1-6.642,0l-.112-.424H34.991l-3.6.9v3.109l3.465-.867A.407.407,0,0,1,34.97,116.395Zm17.991,4.867a.433.433,0,1,1,0-.866h7a.433.433,0,1,1,0,.866Zm0-4a.433.433,0,1,1,0-.866h11a.433.433,0,0,1,0,.866Zm0-4a.433.433,0,1,1,0-.866h14a.433.433,0,0,1,0,.866Zm-12-10a.433.433,0,1,1,0-.866h1a.433.433,0,1,1,0,.866Zm-5,0a.433.433,0,1,1,0-.866h1a.433.433,0,1,1,0,.866Zm-5,0a.433.433,0,1,1,0-.866h1a.433.433,0,1,1,0,.866Z" fill="#42495b"/>
    <path id="Path_2497" data-name="Path 2497" d="M34.97,116.395a.428.428,0,0,1,.26.089.433.433,0,0,1,.165.341V126.4h9.134v-9.567a.434.434,0,0,1,.165-.346.457.457,0,0,1,.267-.086.443.443,0,0,1,.108.013l3.46.866v-3.109l-3.606-.9H43.394l-.112.424a3.433,3.433,0,0,1-6.642,0l-.112-.424H34.991l-3.6.9v3.109l3.465-.867A.407.407,0,0,1,34.97,116.395Z" fill="#ff6b6b"/>
    <path id="Path_2498" data-name="Path 2498" d="M17.961,117.262a1.569,1.569,0,0,0-1.566,1.567V148.4H67.528v-9.134H64.394v5.567a.433.433,0,0,1-.433.433h-44a.434.434,0,0,1-.433-.433v-24a.434.434,0,0,1,.433-.433h6.567v-3.134Z" fill="#e0e0e2"/>
    <path id="Path_2499" data-name="Path 2499" d="M13.4,152.829A3.583,3.583,0,0,0,16.96,156.4h50a3.584,3.584,0,0,0,3.567-3.565v-3.569H47.394v1.567a2.447,2.447,0,0,1-2.435,2.433h-6a2.447,2.447,0,0,1-2.433-2.435v-1.565H13.4Z" fill="#e0e0e2"/>
  </g>
</svg>
