<?xml version="1.0" encoding="utf-8"?>
<svg xmlns="http://www.w3.org/2000/svg" width="62" height="62" viewBox="0 0 62 62">
  <g id="static-website-development" transform="translate(-0.5 -0.5)">
    <path id="Path_1851" data-name="Path 1851" d="M59.854,14.083H3.182a2.1,2.1,0,0,0-2.1,2.1V45.567h60.87V16.182A2.1,2.1,0,0,0,59.854,14.083Z" transform="translate(-0.018 -0.424)" fill="#fff"/>
    <path id="Path_1852" data-name="Path 1852" d="M61.953,46.583v4.2a2.105,2.105,0,0,1-2.1,2.1H3.182a2.105,2.105,0,0,1-2.1-2.1v-4.2Z" transform="translate(-0.018 -1.44)" fill="#e0e0e2"/>
    <path id="Path_1853" data-name="Path 1853" d="M51.8,9.75V34.938a2.105,2.105,0,0,1-2.1,2.1H14.015a2.105,2.105,0,0,1-2.1-2.1V9.75Z" transform="translate(-0.357 -0.289)" fill="#ff6b6b"/>
    <path id="Path_1854" data-name="Path 1854" d="M51.8,3.182v6.3H11.917v-6.3a2.105,2.105,0,0,1,2.1-2.1H49.7a2.105,2.105,0,0,1,2.1,2.1Z" transform="translate(-0.357 -0.018)" fill="#e0e0e2"/>
    <path id="Path_1855" data-name="Path 1855" d="M38.56,53.083l1.049,6.3H24.917l1.049-6.3Z" transform="translate(-0.763 -1.643)" fill="#ff6b6b"/>
    <rect id="Rectangle_527" data-name="Rectangle 527" width="2.099" height="2.099" transform="translate(46.193 4.214)" fill="#353b4a"/>
    <rect id="Rectangle_528" data-name="Rectangle 528" width="2.099" height="2.099" transform="translate(41.995 4.214)" fill="#353b4a"/>
    <rect id="Rectangle_529" data-name="Rectangle 529" width="2.099" height="2.099" transform="translate(37.797 4.214)" fill="#353b4a"/>
    <path id="Path_1856" data-name="Path 1856" d="M16.807,62.5a.548.548,0,0,1-.5-.3.565.565,0,0,1,.047-.6L19.5,57.4a.572.572,0,0,1,.454-.226h3.713l.866-5.166H3.164A2.68,2.68,0,0,1,.5,49.34V15.758a2.679,2.679,0,0,1,2.665-2.664h7.829V3.164A2.68,2.68,0,0,1,13.66.5H49.341a2.68,2.68,0,0,1,2.664,2.665v9.929h7.83A2.68,2.68,0,0,1,62.5,15.759V49.341a2.68,2.68,0,0,1-2.666,2.664H38.463l.865,5.166h3.716a.579.579,0,0,1,.453.229L46.644,61.6a.563.563,0,0,1,.051.593.548.548,0,0,1-.49.312Zm1.131-1.131H45.063l-2.3-3.067H20.238Zm6.882-4.2H38.181l-.866-5.166H25.686ZM1.631,49.341a1.535,1.535,0,0,0,1.534,1.534H59.836a1.535,1.535,0,0,0,1.534-1.534V45.709H1.631ZM3.164,14.224a1.535,1.535,0,0,0-1.534,1.534v28.82H61.369V15.758a1.535,1.535,0,0,0-1.534-1.534h-7.83V34.648a2.68,2.68,0,0,1-2.666,2.664H44.659v3.068h7.347v1.13H44.094a.566.566,0,0,1-.565-.565V37.313H36.263v4.2H35.133v-4.2H27.867v4.2H26.737v-4.2H19.471v3.633a.565.565,0,0,1-.565.565H10.994v-1.13h7.347V37.313H13.659a2.68,2.68,0,0,1-2.664-2.666V14.224Zm8.961,20.424a1.535,1.535,0,0,0,1.534,1.534H49.341a1.535,1.535,0,0,0,1.534-1.534V10.026H12.125ZM13.659,1.631a1.535,1.535,0,0,0-1.534,1.534V8.9h38.75V3.164a1.535,1.535,0,0,0-1.534-1.534Z" fill="#353b4a"/>
    <path id="Path_1857" data-name="Path 1857" d="M20.166,24.028a.565.565,0,0,1,0-.8l5.954-5.955.8.8-5.555,5.555,5.555,5.555-.8.8Z" transform="translate(-0.609 -0.524)" fill="#fff"/>
    <path id="Path_1858" data-name="Path 1858" d="M37.858,29.183l5.555-5.555-5.555-5.555.8-.8,5.954,5.955a.565.565,0,0,1,0,.8l-5.954,5.954Z" transform="translate(-1.167 -0.524)" fill="#fff"/>
    <rect id="Rectangle_530" data-name="Rectangle 530" width="18.948" height="1.131" transform="translate(27.967 31.892) rotate(-71.584)" fill="#fff"/>
  </g>
</svg>
