<?xml version="1.0" encoding="utf-8"?>
<svg xmlns="http://www.w3.org/2000/svg" width="61.718" height="61.535" viewBox="0 0 61.718 61.535">
  <g id="wordpress-developmnet" transform="translate(-194.495 -16.048)">
    <path id="Path_2477" data-name="Path 2477" d="M195.081,29.229V19.206a3.223,3.223,0,0,1,.263-1.278,3.3,3.3,0,0,1,.751-1.083,3.412,3.412,0,0,1,1.122-.724,3.526,3.526,0,0,1,1.324-.255h54.212a3.525,3.525,0,0,1,1.324.255,3.427,3.427,0,0,1,1.123.724,3.309,3.309,0,0,1,.75,1.083,3.223,3.223,0,0,1,.263,1.278V29.229Z" transform="translate(0 0.898)" fill="#ff6b6b"/>
    <rect id="Rectangle_3270" data-name="Rectangle 3270" width="48.598" height="16.302" transform="translate(200.848 56.235)" fill="#e0e0e2"/>
    <path id="Path_2479" data-name="Path 2479" d="M198.628,77.583a4.138,4.138,0,0,1-4.133-4.133V20.181a4.138,4.138,0,0,1,4.133-4.133H251.9a4.137,4.137,0,0,1,4.133,4.133V73.45a4.137,4.137,0,0,1-4.133,4.133Zm0-60.58a3.182,3.182,0,0,0-3.179,3.178V73.45a3.182,3.182,0,0,0,3.179,3.179H251.9a3.182,3.182,0,0,0,3.179-3.179V20.181A3.182,3.182,0,0,0,251.9,17Z" fill="#353b4a"/>
    <path id="Path_2480" data-name="Path 2480" d="M200.464,25.3a.2.2,0,0,1-.2-.2V22.017a.2.2,0,0,1,.2-.2h3.076a.2.2,0,0,1,.2.2v3.076a.2.2,0,0,1-.2.2Z" fill="#fff"/>
    <path id="Path_2481" data-name="Path 2481" d="M208.238,25.3a.2.2,0,0,1-.2-.2V22.017a.2.2,0,0,1,.2-.2h3.076a.2.2,0,0,1,.2.2v3.076a.2.2,0,0,1-.2.2Zm.2-.4h2.673V22.219H208.44Z" fill="#353b4a"/>
    <path id="Path_2482" data-name="Path 2482" d="M216.5,25.3a.2.2,0,0,1-.2-.2V22.017a.2.2,0,0,1,.2-.2h3.076a.2.2,0,0,1,.2.2v3.076a.2.2,0,0,1-.2.2Zm.2-.4h2.673V22.219H216.7Z" fill="#353b4a"/>
    <path id="Path_2483" data-name="Path 2483" d="M194.972,31.062a.541.541,0,0,1-.477-.586V20.671a4.4,4.4,0,0,1,4.133-4.623H251.9a4.4,4.4,0,0,1,4.133,4.623v9.805a.541.541,0,0,1-.477.586Zm3.656-13.841a3.327,3.327,0,0,0-3.179,3.45v9.218h59.627V20.671a3.327,3.327,0,0,0-3.179-3.45Z" fill="#353b4a"/>
    <path id="Path_2484" data-name="Path 2484" d="M200.849,51.64a.586.586,0,0,1-.587-.586V49.323a.587.587,0,0,1,1.173,0v1.145h1.143a.586.586,0,0,1,0,1.172Z" fill="#353b4a"/>
    <path id="Path_2485" data-name="Path 2485" d="M200.849,45.313a.586.586,0,0,1-.587-.586V40.636a.587.587,0,0,1,1.173,0v4.091A.587.587,0,0,1,200.849,45.313Z" fill="#353b4a"/>
    <path id="Path_2486" data-name="Path 2486" d="M200.849,36.592a.586.586,0,0,1-.587-.586v-1.73a.587.587,0,0,1,.587-.587h1.729a.587.587,0,0,1,0,1.173h-1.143v1.144A.587.587,0,0,1,200.849,36.592Z" fill="#353b4a"/>
    <path id="Path_2487" data-name="Path 2487" d="M240.705,34.913c-.227,0-.42-.268-.42-.586s.193-.586.42-.586h2.9c.227,0,.419.269.419.586s-.192.586-.419.586Zm-6.757,0c-.227,0-.419-.268-.419-.586s.192-.586.419-.586h2.9c.227,0,.42.269.42.586s-.193.586-.42.586Zm-6.756,0c-.227,0-.419-.268-.419-.586s.192-.586.419-.586h2.9c.227,0,.419.269.419.586s-.192.586-.419.586Zm-6.755,0c-.228,0-.42-.268-.42-.586s.192-.586.42-.586h2.9c.228,0,.419.269.419.586s-.191.586-.419.586Zm-6.756,0c-.228,0-.419-.268-.419-.586s.191-.586.419-.586h2.9c.228,0,.419.269.419.586s-.191.586-.419.586Zm-6.756,0c-.228,0-.419-.268-.419-.586s.191-.586.419-.586h2.9c.228,0,.42.269.42.586s-.192.586-.42.586Z" fill="#353b4a"/>
    <path id="Path_2488" data-name="Path 2488" d="M249.677,36.592a.587.587,0,0,1-.586-.586V34.862h-1.144a.587.587,0,1,1,0-1.173h1.73a.587.587,0,0,1,.586.587v1.73A.587.587,0,0,1,249.677,36.592Z" fill="#353b4a"/>
    <path id="Path_2489" data-name="Path 2489" d="M249.677,45.313a.586.586,0,0,1-.586-.585V40.637a.586.586,0,1,1,1.172,0v4.091A.586.586,0,0,1,249.677,45.313Z" fill="#353b4a"/>
    <path id="Path_2490" data-name="Path 2490" d="M247.947,51.64a.586.586,0,1,1,0-1.172h1.144V49.323a.586.586,0,1,1,1.172,0v1.731a.587.587,0,0,1-.586.586Z" fill="#353b4a"/>
    <path id="Path_2491" data-name="Path 2491" d="M240.705,51.564c-.227,0-.42-.268-.42-.585s.193-.586.42-.586h2.9c.227,0,.419.268.419.586s-.192.585-.419.585Zm-6.757,0c-.227,0-.419-.268-.419-.585s.192-.586.419-.586h2.9c.227,0,.42.268.42.586s-.193.585-.42.585Zm-6.756,0c-.227,0-.419-.268-.419-.585s.192-.586.419-.586h2.9c.227,0,.419.268.419.586s-.192.585-.419.585Zm-6.755,0c-.228,0-.42-.268-.42-.585s.192-.586.42-.586h2.9c.228,0,.419.268.419.586s-.191.585-.419.585Zm-6.756,0c-.228,0-.419-.268-.419-.585s.191-.586.419-.586h2.9c.228,0,.419.268.419.586s-.191.585-.419.585Zm-6.756,0c-.228,0-.419-.268-.419-.585s.191-.586.419-.586h2.9c.228,0,.42.268.42.586s-.192.585-.42.585Z" fill="#353b4a"/>
    <path id="Path_2492" data-name="Path 2492" d="M225.263,46.751a.586.586,0,0,1-.586-.586V39.244a.586.586,0,0,1,1.172,0v6.921A.587.587,0,0,1,225.263,46.751Z" fill="#ff6b6b"/>
    <path id="Path_2493" data-name="Path 2493" d="M221.8,43.239a.586.586,0,1,1,0-1.173h6.92a.586.586,0,0,1,0,1.173Z" fill="#ff6b6b"/>
    <path id="Path_2494" data-name="Path 2494" d="M200.718,72.971a.491.491,0,0,1-.456-.518V56.168a.491.491,0,0,1,.456-.519h49.09a.491.491,0,0,1,.455.519V72.453a.49.49,0,0,1-.455.518Zm.455-1.036h48.18V56.686h-48.18Z" fill="#353b4a"/>
  </g>
</svg>
